<?xml version="1.0" encoding="UTF-8"?>
<svg id="_レイヤー_1" data-name="レイヤー 1" xmlns="http://www.w3.org/2000/svg" viewBox="0 0 1380.95 372.67">
  <defs>
    <style>
      .cls-1 {
        fill: #d6e038;
      }

      .cls-2 {
        fill: #0e0415;
        stroke: #fffef9;
        stroke-miterlimit: 10;
      }
    </style>
  </defs>
  <path class="cls-1" d="M1364.41,0s-318.22,363.2-981.25,372.67c0,0,526.88-35.35,981.25-372.67Z"/>
  <g>
    <path class="cls-2" d="M109.74,99.18c-2.34,2.34-4.86,4.5-7.56,6.66-.9.18-1.8-.18-2.52-.72-.72-.54-1.26-1.26-1.62-1.98-.18-1.08-.36-1.98-.72-3.06-.9-2.7-1.8-5.58-2.52-8.46-.9-2.88-1.08-5.76-.54-8.64,1.8-9.9,5.4-19.08,10.62-27.72.54-1.44,1.08-2.7,1.44-4.32,0-2.16.9-3.96,2.7-5.22,1.62-1.26,3.24-2.52,4.68-3.78.36,0,.54,0,.72-.18.9.72,1.62,1.44,2.34,2.34.18.72-.18,1.44-.72,1.98-1.8,1.98-3.42,3.78-5.22,5.58-2.34,2.88-3.42,6.12-3.42,10.08-.36,3.24-.9,6.48-1.62,9.54-1.98,5.58-2.7,11.16-1.98,16.92-.36,1.98-.54,3.6-.72,5.4-.18,1.26-.18,2.52.18,3.78.36,1.26,1.26,1.8,2.16,1.62,1.08,0,1.98-.36,2.7-1.26,1.08-.54,2.16-1.26,3.06-1.8-.36,1.26-.72,2.34-1.44,3.24ZM220.43,70.2c-1.44,1.08-3.06,1.26-4.86.36-3.78-1.62-7.56-3.42-11.34-5.22-.9-.36-1.8-.54-2.88-.54-3.24.54-6.48,1.08-9.72,1.44-.54.18-.9,0-1.08-.36,0-.54-.36-.54-1.08-.18-.54.36-1.26.54-1.98,1.08-.9.36-1.08.9-.54,1.62.36.9.9,1.44,1.44,1.8,2.52,3.06,4.14,6.3,4.68,9.9,0,3.06-1.26,4.86-4.14,5.58-1.98.36-4.14.72-6.12,1.26-1.08.36-1.98.54-2.88.9-.54.36-1.08.72-1.62.9s-1.08.18-1.62-.54c-1.26.72-2.52,1.44-3.78,2.34-1.08,1.08-1.98.9-2.7-.18-.18-.36-.72-.54-1.26-.36,0,.54,0,.9.18,1.26,1.98,1.62,3.42,3.6,4.14,6.12.72,2.34,1.26,4.68,1.26,7.2.36.9.9,1.44,1.62,1.98,4.86.72,9,2.7,12.6,5.76,3.96,2.7,7.92,5.4,11.88,7.92,4.5,3.24,7.56,7.74,9.18,13.14.9,4.32-.9,6.66-5.58,6.84-4.5,0-8.46,1.62-11.88,5.04-1.44,1.26-1.44,2.52-.18,3.96.36,1.08.54,2.16.54,3.42v1.26c1.08,1.62.72,2.7-.72,3.42-1.44.36-2.7.36-3.96,0-3.06-.9-6.3-1.8-9.36-2.7-3.42-.18-6.84-.18-10.26,0-1.98,0-3.78.36-5.58,1.08-1.8.9-3.6,1.62-5.22,2.16-1.08.54-1.98.72-3.06.54-5.22.18-10.44.54-15.48,1.26-1.62.18-1.98,1.08-1.26,2.34.54,1.08.72,1.98.9,2.88.18,1.8-.72,2.52-2.88,2.16-4.68-1.62-8.46-4.68-11.34-9-3.24-3.96-6.3-8.1-9.54-12.06-1.8-2.7-3.6-5.22-5.4-7.74-2.52-3.6-3.06-7.38-1.44-11.7.36-1.62.9-3.24,1.62-4.68.72-.9,1.62-1.44,2.7-1.62,1.62.36,3.06.9,4.5,1.62.54.54.9,1.26.9,1.98,0,2.34.72,2.88,2.52,1.62,6.3-5.22,12.6-10.8,18.72-16.56.72-.18,1.26-.54,1.44-1.26.36-.72.18-1.44-.54-1.98-.54-.54-1.08-.9-1.44-1.44-2.52-2.52-4.5-5.4-6.3-8.46-.18-.36-.18-.9,0-1.26.36-.36.72-.54,1.08-.72.36-.72.9-1.62,1.62-2.52,3.06-2.88,6.3-5.58,9.54-8.28,1.26-.72,1.26-1.26,0-1.62-1.44-.54-2.88-1.26-4.32-2.34-.54-.9-.72-1.98-.36-3.06,2.88-3.24,6.12-6.12,9.72-8.46,3.42-2.52,7.2-4.68,10.98-6.84.36-.18.72-.18,1.08-.18.54.18.9.36,1.26.54,2.7-.54,5.4-1.26,8.28-1.98.72.18,1.62.54,2.16,1.08,1.26.9,2.34.72,3.6-.18,3.24-2.88,6.66-5.58,10.08-8.28,1.44-1.26,1.26-2.34-.54-3.06-2.7-1.08-5.4-1.26-8.1-.18-1.62.54-3.24,1.08-4.86,1.44-1.62.36-3.06,1.08-4.5,2.16-1.44,1.08-2.7,2.16-3.96,3.24-1.26.36-2.34.18-3.6-.36-3.42-.54-6.84.36-9.9,2.34-1.98,1.62-4.14,2.7-6.66,3.24-4.68,1.08-9.36.54-13.86-1.62-2.52-1.08-4.86-1.98-7.38-2.52-1.8-.36-1.8-1.08-.36-2.16,1.44-1.26,2.7-2.88,3.78-4.5.72-1.08,1.8-1.8,3.24-2.16,1.26-.18,2.7-.54,3.96-.54.36-.18.9-.18,1.26-.18-.36-.36-.9-.54-1.26-.72-1.8-.18-3.6-.54-5.4-.9-1.98.36-4.14.72-6.3.9-1.08.18-1.44-.36-1.08-1.44.9-3.42,3.06-5.4,6.48-5.76,2.34-.36,4.32-1.26,6.3-2.52,1.98-1.44,2.88-3.42,2.16-6.12-.36-3.6-.72-7.02-.9-10.8-.18-1.08-.72-2.16-1.44-3.06-1.26-1.26-1.08-2.16.18-3.06,3.96-2.34,8.28-4.68,12.42-6.66,2.7-1.08,5.22-.72,7.56,1.26,2.34,1.8,4.5,3.6,6.66,5.4,2.16,1.8,3.78,3.96,5.04,6.66,1.62,2.88,3.24,5.58,5.04,8.46,1.8,2.7,2.52,5.76,2.34,9.18-.18.54,0,.9.36.9.54,0,.9-.18,1.26-.54,4.68-1.98,9.54-2.88,14.58-2.88.72,0,1.44,0,2.16.36,8.64,3.78,16.38,9.18,23.04,16.02,3.42,3.78,5.76,8.1,6.84,13.14.54,1.98.18,3.96-1.08,5.58ZM115.32,78.84c.54-1.26,1.08-2.34,1.8-3.42.54-.36,1.08-.54,1.8-.36-.18.72-.36,1.26-.36,1.98-1.62.72-1.62,1.8-.18,3.06.54,1.26.9,2.52.9,3.96-.18,2.7.9,5.04,3.06,7.02,3.96,3.42,7.74,7.2,11.34,10.98.36,1.26.72,2.34,1.08,3.6-1.44.18-2.52,0-3.78-.18-5.58-3.42-9.72-8.1-12.06-14.22-1.26-3.42-2.34-6.84-3.24-10.44l-.36-1.98ZM165.72,126.89c-.54.18-.9.18-1.26.18-1.98.18-3.96.54-6.12,1.08-.54,0-1.26,0-1.98-.18-.9-.18-1.44.18-1.98.72-.36.72-.36,1.44-.18,2.16-.18.18-.54.36-.72.54-1.44.18-2.88.36-4.14.36-1.44-.18-2.88-.36-4.5-.36-1.44-.18-2.88.18-3.96,1.08-.54.36-1.26.54-1.8.36-1.98-.72-4.14-1.26-6.3-1.44-2.16,0-4.14.54-5.76,1.8h-.54c-.36,0-.72-.18-.9-.36,0-.54.18-1.08.54-1.44,1.98-2.16,4.14-4.32,6.12-6.66,2.16-2.34,4.5-4.14,7.2-5.58.9-.36,1.8-1.08,2.88-1.8l.54-1.08-1.44-.18c-.54.18-1.08.36-1.62.72-1.8,1.44-3.78,2.88-5.76,4.32l-14.04,6.48c-.9.36-1.44.9-1.8,1.8-.18,1.98,0,3.96.72,5.76,2.7,4.5,5.58,8.82,8.46,13.14.36.18.9.18,1.26.18,2.52-2.34,5.4-3.96,8.64-4.68,2.7-.9,5.58-1.62,8.28-1.8,2.52.18,5.04-.18,7.38-1.26,2.16-1.08,4.32-2.34,6.12-4.14.18-.18.36-.18.54-.36,1.98-2.52,3.96-5.04,5.94-7.56.18-.54.36-1.08.18-1.8ZM196.32,63.18c-.54-.72-1.26-1.08-1.98-1.26-4.14.72-8.28,1.44-12.42,2.16l-.36.72c.72.54,1.26,1.08,1.98,1.44.72.54,1.44.54,2.34.18,2.34-.9,4.68-1.8,7.2-2.52,0,0,0,.18.18.36,1.08-.36,2.16-.72,3.06-1.08Z"/>
    <path class="cls-2" d="M410.69,160.73c-.72,3.24-2.7,4.5-5.94,3.6-3.78-.9-7.2-2.52-10.26-4.68-3.06-2.16-5.94-4.5-8.46-7.2-3.96-4.32-7.56-9-10.62-13.86-2.7-3.06-5.76-3.6-9.18-1.8-3.6,2.7-7.02,5.58-10.62,8.28-1.26.9-2.7,1.62-3.96,2.16-.36.36-.72.54-1.08.36,0-.36.18-.72.54-.9.36-.54.72-1.08,1.44-1.8-.72.36-1.44.72-1.98,1.08-2.16,1.44-3.96,3.24-5.4,5.22-.54.72-.9,1.44-1.26,2.16-.36.72-.9,1.44-1.62,1.8-1.26.54-2.52,1.26-3.78,2.16-.54.54-1.08.9-1.44,1.44-.36.36-.72.72-1.08,1.08-.18.36-.54.54-1.08.54-1.08-.36-1.98-.9-2.7-1.62-.18-1.26,0-2.34.72-3.6,1.08-1.44,2.34-2.88,3.6-4.14.18-.54.54-.72.9-.54,1.44.54,2.88.36,4.14-.54,1.26-.9,2.52-1.8,3.6-2.88.72-.72,1.44-1.62,1.98-2.34,5.4-8.64,10.8-17.28,16.2-25.92.36-.9.36-1.98,0-2.88-1.44-3.42-2.88-6.48-4.5-9.54-.36-.72-.9-1.44-1.26-1.98-.36.72-.54,1.44-.72,2.34-.72,4.68-1.44,9.36-2.52,14.04-.72,3.96-2.52,7.38-5.4,10.44-.54.9-1.08,1.8-1.8,2.88-1.62,2.52-3.6,5.04-5.76,7.56-.36,0-.72-.18-.9-.36-.72-1.08-1.62-1.26-2.52-.36-1.08.54-1.8,1.44-2.52,2.34-.72,1.08-1.62,1.62-2.88,1.44-1.08,0-2.16-.36-3.24-1.08-1.62-.9-3.06-2.34-4.14-3.96-1.08-1.62-2.16-3.24-3.06-4.68-.36-.18-.54-.54-.54-1.08-.18-1.44-.54-2.88-1.26-4.14-1.98-4.32-4.14-8.64-6.48-13.14-.36-.54-.9-.9-1.26-1.08-.18.36-.54.72-1.08,1.08-.9,2.7-1.8,5.58-2.7,8.28-.9,2.7-2.16,5.22-3.6,7.56-4.32,6.48-9.36,12.24-15.12,17.1-2.16,1.98-4.68,3.78-7.38,5.04-1.26-.54-2.34-1.44-3.06-2.52-.18-1.26-.18-2.34-.18-3.6v-1.26c-.36.18-.72.54-1.08.9-1.44,1.8-3.24,2.34-5.58,1.62-2.34-1.44-4.68-3.42-6.66-5.58-.18-.36-.18-.9,0-1.44,1.62-3.06,3.06-6.12,4.5-9.36.54-.72.9-1.62.9-2.52-.36-4.14-.9-8.28-1.26-12.24-.36-.72-1.08-1.08-1.8-1.26-2.7.72-5.22,1.26-7.74,1.44-1.98.36-3.24-.18-3.96-1.44-.72-1.44-.54-2.7.54-4.14l13.68-25.38c.36-.36.54-.72.54-1.08,1.26-5.04,2.34-9.9,3.24-14.94.18-3.78.36-7.74.54-11.52.18-3.24.72-6.3,1.44-9.54.72-3.06,2.16-5.94,4.5-8.46,1.62-1.62,3.24-3.42,4.86-5.22.36-.36.72-.54,1.08-.36,5.4,2.52,9,6.48,10.98,12.06,0,1.62-.18,3.06-.54,4.68-.18.18-.36.54-.36.9,1.26,1.44,1.8,3.06,1.44,4.86-.18,1.8-.54,3.6-.54,5.22s.18,3.24.18,4.68c0,1.62-.54,3.06-1.62,4.5-.18.72,0,1.44.54,1.98,1.08,1.08,2.16,2.16,3.42,3.24,4.5,3.6,6.66,8.46,6.48,14.22,0,.36-.18.72-.18.9-4.32,3.42-8.46,7.02-12.42,10.62-.72.9-1.08,1.98-1.26,3.06-.18,1.08-.36,2.16-.54,3.24h.9c1.62-.9,3.24-1.8,5.04-2.7,1.62-.72,3.24-1.44,5.04-1.8l.54.54c0,1.08-.36,2.16-.9,3.06-1.98,3.78-4.14,7.2-6.48,10.62-4.14,6.12-8.28,12.24-12.06,18.36-.72,1.8-.36,3.24.72,4.68,1.44.36,2.7.36,3.96-.36,5.94-3.06,10.26-7.56,13.14-13.5,2.7-6.3,4.86-12.78,6.66-19.26.36-.9.18-1.8,0-2.52-.36-.9-.54-1.8-.72-2.7-.36-.18-.54-.36-.72-.9-.36-.9-.72-1.98-.9-3.06.72.54,1.62,1.26,2.7,1.62l1.44,1.08c.18-.54.18-1.08.36-1.62.54-1.26.9-2.52,1.08-3.96.18-.54.36-1.08.72-1.44v-19.8c-.18-1.62-.9-2.7-2.16-3.6-1.98-1.44-3.6-2.88-5.04-4.5-1.44-2.16-1.08-3.6,1.26-4.68,2.52-.9,5.04-1.8,7.74-2.34,1.62-.18,3.06.36,3.96,1.8.72,2.88,1.44,5.94,2.34,8.82.72,3.06.9,6.12.36,9.18-.36,1.44-.54,2.88-.54,4.5v.72c.18,0,.36,0,.54-.36,5.76-7.02,11.7-14.04,17.64-21.06,1.62-1.62,1.26-2.52-.9-2.52-3.06,0-5.94.18-9,.54-.54,0-1.08.18-1.44.18v-1.62c.72-1.26,1.62-2.34,2.52-3.24,1.98-.72,3.6-1.62,5.04-2.88,1.44-1.26,2.88-2.34,4.32-3.42,1.8-.9,2.88-2.34,3.42-3.96.36-1.8.36-3.6-.18-5.58-.9-3.6-1.62-7.38-1.8-11.16,0-3.96-1.62-7.2-5.04-9.54-.72-.54-.9-1.08-.72-1.98,2.7-5.4,7.02-8.64,12.96-9.54,4.68-.72,8.46.72,11.52,3.96,3.06,3.06,4.14,7.02,3.6,11.52.18,4.5.54,9,1.08,13.5.18.72.72,1.08,1.44,1.44,3.6,1.98,7.2,4.14,10.8,6.48,1.26.9,1.98,2.34,2.16,3.78,0,1.62-.18,3.06-.72,4.5-.36.18-.54.36-.9.54-3.42,1.8-6.66,3.42-9.72,5.4l-.72.36c-.9-.36-1.62-.18-2.34.18-.54.36-.9,1.08-.9,1.8v2.34l.72,13.68c.54,3.06,1.08,6.12,1.8,9.36.36,1.26.36,2.52.36,3.78-.18,1.8,0,3.6.72,5.58.54,1.8,1.08,3.6,1.44,5.4.36.18.72.18,1.08,0,.36-.36.36-.72.36-1.08,2.88-5.76,5.76-11.88,8.46-17.82.9-1.26.54-2.16-.9-2.88-2.52-.9-2.52-1.98-.36-3.6,2.88-2.16,5.94-4.32,9-6.48,1.8-.72,3.6-.54,5.22.9,4.14,3.06,6.66,7.2,7.56,12.42.18,1.8-.36,3.6-1.44,5.22-1.44,3.78-3.06,7.56-4.68,11.34,0,.54.18,1.08.54,1.44,1.8,3.6,3.78,7.2,5.58,10.62,1.98,4.32,3.96,8.64,6.12,13.14,4.68,10.62,6.48,21.42,5.22,32.94ZM336.9,104.58c0-2.16-.9-2.88-2.88-1.98-1.08.36-2.16.54-3.42.54-1.8.54-3.6,1.26-5.4,2.16-1.8,1.08-3.78,1.8-5.94,1.98-.9,0-1.98.18-3.06.54-.9.36-1.44,1.26-1.08,2.34.18,1.26.36,2.16.72,3.06,2.34,4.14,4.5,8.1,6.84,12.06.54,1.08,1.62,2.16,2.7,3.06.9-.18,1.8-.72,2.34-1.44.9-.72,1.8-1.62,2.7-2.34,1.08-.72,1.8-1.8,2.16-2.88,1.44-5.58,2.88-11.34,4.32-17.1ZM353.64,87.84c-1.26-4.14-2.52-8.46-3.78-12.78-.54-.18-1.08-.18-1.62,0-3.06,2.52-6.3,5.04-9.54,7.38-.36.18-.72.72-.72,1.26h1.08c3.42-.9,6.48-.18,8.82,2.34,1.26.9,2.7,1.98,4.14,2.7.36.18.72.36.9.54.36-.54.72-1.08.72-1.44ZM366.78,30.78c-.54-.18-.72-.54-.36-1.08.18-.54.36-.9.36-1.26.72-3.42,2.34-6.3,4.86-8.64,2.52-2.34,5.4-4.14,8.46-5.76,1.44-.72,2.88-.54,4.32.72,3.24,3.24,6.48,6.66,9.72,9.9,1.8,2.7,3.42,5.4,4.5,8.46.18,1.98,0,3.78-.72,5.76-.18.36-.36.54-.72.72-3.06.36-5.94.72-9,.9-1.8-.72-3.6-1.26-5.58-1.44-2.16-.18-3.96-1.08-5.58-2.34-2.34-1.26-4.68-2.52-7.2-3.6-.36-.18-.72-.54-.9-.9-.36-.36-.72-.9-.9-1.26-.36.18-.9,0-1.26-.18ZM396.3,126h-.18c0-.72,0-1.62-.36-2.16-.36-2.34-.72-4.5-1.44-6.48-.9-1.44-1.8-2.88-3.24-4.14-.36-.9-.72-1.98-1.08-3.24-1.08,1.26-1.98,2.34-2.7,3.6-.54,1.08-1.08,2.16-1.44,3.24-.18,1.08-.54,1.98-.9,2.88l-5.58,8.1c-.18.9-.18,1.62.36,2.34,3.24,4.68,7.56,7.56,12.96,8.64,2.34.36,3.42-.54,3.42-2.88,0-3.24.18-6.48.18-9.9ZM391.08,109.44c.54,1.08.9,1.98,1.26,3.24.18-.54.54-1.26.9-1.8-.72-.72-1.26-1.62-1.8-2.52-.18.36-.36.72-.36,1.08Z"/>
  </g>
  <g>
    <path class="cls-2" d="M97.22,235.34c-1.01,1.49-2.2,2.81-3.96,3.8-1.57.98-3.17,1.42-5.16,1.34-2.38-.78-4.93-1.38-7.48-1.79-4.32.03-8.64.25-13.11.83-4.31.39-8.41,1.14-12.51,2.06-2.67.67-4.97,1.51-7.25,2.88-1.8.09-2.29,1.01-2.04,2.44-1.02,1.31-2.25,1.91-3.86,2.17-2-.44-3.8-.35-5.74.46-1.76.81-3.51,1.98-4.88,3.3-5.54,4.6-10.14,9.87-13.8,16.18-.31.92-.63,1.83-.94,2.93-.15.55-.49,1.11-1.01,1.49-.9.04-1.42.43-1.57.98-.14.73-.11,1.45.29,2.15.48,2.5,1.84,4.41,3.72,5.94,2.05,1.34,4.26,2.31,6.62,2.74,4.39,1.22,8.77,2.45,12.98,3.68,15.03,5.02,28.05,13.21,39.39,24,4.73,4.45,9.28,9.09,13.47,13.57,1.53,1.73,2.51,3.48,3.33,5.42.99,1.75,1.08,3.55.08,5.22-1.18,1.68-2.76,2.48-4.74,2.58-.9.04-1.61.26-2.32.47q-.18,0-.35.2c-2.18-.43-4.38-1.05-6.58-1.84l-7.55-3.23c-2.59-1.31-5.53-2.43-8.44-3.01-1.09-.13-2.16.11-3.05.33-1.07.23-1.96.46-2.85.68l-1.08.05.67-1.11c0-.18.16-.37.33-.56.5-.75,1.19-1.5,1.88-2.07.68-.76,1.01-1.49.96-2.39-.17-3.42-1.39-6.24-3.67-8.65-3.4-3.08-7.12-5.59-11.19-7.56-4.24-1.95-8.47-3.73-12.69-5.14-6.05-2.04-12.1-4.27-18.16-6.49-5.51-2.07-10-5.45-13.12-10.16-1.98-3.69-1.81-7.48.72-11.03,1.17-1.86,2.16-3.71,3.14-5.74,3.67-5.95,8.09-11.39,13.07-16.32,4.98-4.93,10.34-9.52,15.91-13.58,11.65-8.68,23.48-17.2,35.33-25.35,2.6-2.11,4.83-4.38,6.88-6.65.68-.75,1.56-1.34,2.63-1.57,1.07-.23,1.99.08,2.74.77,1.69,1.36,3.73,2.52,5.6,3.87,2.62,2.03,4.9,4.44,6.49,7.25,1.59,2.98,2.82,5.99,3.7,9.19.46,1.96.18,3.6-.82,5.27Z"/>
    <path class="cls-2" d="M214.44,287.94c.15-.55.5-.75.86-.76l.07,1.44c-1.32,2.41-2.64,5-4.14,7.41-.67,1.11-1.69,2.25-2.72,3.38-3.56,4.5-3.52,9,.31,13.5.43,1.42.68,2.85.75,4.29.39.52.4.88.06,1.26.62,1.59.32,2.87-.88,4.01-1.21.96-2.63,1.39-4.28.93-6.36-1.13-11.75-4.28-16.32-9.29-6.08-6.37-12.17-12.92-18.09-19.65-1.16-1.56-2.15-3.32-2.78-5.27-.63-1.77-1.27-3.72-1.9-5.67-.44-1.6-.71-3.39-.44-5.2.1-1.63.55-3.45,1.01-5.1.35-3.8.7-7.78,1.24-11.41.47-5.07.95-9.96,1.07-14.83-.05-8.29.81-16.44,2.4-24.45.95-2.75,2.07-5.51,3.56-8.11,1.15-2.22,2.3-4.44,3.64-6.49,1.31-2.59,3.26-3.22,5.67-1.9,4.44,2.3,7.67,5.75,9.51,10.16,2.41,4.93,5.17,9.84,7.93,14.57,1.02,2.47,1.69,4.96,2.52,7.26-.21,3.07-.97,6-2.46,8.59-1.67,2.61-3.73,4.69-6.35,6.44-1.93,1-3.49,2.34-4.66,4.19-1.2,1.32-2.21,2.63-3.04,4.12-.66,1.29-.94,2.93-.5,4.53.03.54.05,1.08-.28,1.64-1.83,3.15-2.92,6.45-3.11,10.07,0,3.6-.19,7.04-.38,10.47-.09,1.81.35,3.41,1.49,4.61,1.15,1.39,2.3,2.77,3.44,3.98.94.85,1.89,1.71,3.01,2.55.75.68,1.5,1.19,2.42,1.5.93.49,1.82.45,2.89.22.88-.4,1.76-.81,2.45-1.56,2.8-1.76,5.58-3.7,8.17-5.99.35-.2.7-.39,1.22-.78,2.66-.85,4.75-2.4,6.62-4.65ZM300.02,240.1c1.43,3.35,2.32,6.91,2.69,10.68-.96,2.39-1.39,4.75-1.45,7.1-.04,2.89-.08,5.77-.11,8.66-.63,5.44-2.19,10.38-5.02,15.03-.83,1.48-1.3,2.95-1.58,4.58-.14.73-.47,1.47-.99,1.85-.51.57-1.23.6-2.15.29-.89.22-1.95.64-2.63,1.39-2.63,1.39-4.9,2.95-6.98,4.67-7.13,5.22-14.07,10.61-20.84,15.99-1.74,1.35-3.29,2.69-5.04,3.85-1.74,1.35-3.5,2.15-5.45,2.79-.88.4-1.58.8-2.09,1.36-.68.76-1.38,1.33-1.9,1.72-2.98,1.77-5.76,3.71-8.54,5.83-.36.02-.72.04-1.25.24.16-.37.5-.75.85-1.12,7.75-7.23,15.68-14.65,23.41-22.24,7.59-6.86,11.67-15.53,12.06-25.82.31-8.31-1.16-16.16-4.42-23.75-1.29-4.26-2.76-8.51-4.05-12.59-.4-.88-.81-1.76-1.39-2.63-.58-.87-1.5-1.19-2.58-1.13-1.07.23-1.96.46-2.67.67-4.97,1.51-8.97,4.41-12,8.7l-8.32,10.32c-.34.38-.86.76-1.39.97.14-.73.3-1.28.27-1.82.66-1.29,1.31-2.59,1.97-3.88,4.22-5.8,7.5-12.27,10.05-19.06,2.07-5.51,4.88-10.69,8.43-15.37.84-1.3,1.88-2.08,3.49-2.34,1.43-.25,2.7-.13,3.98.34,5.67,1.7,11.17,3.59,16.34,6.04,4.82,2.65,9.12,5.86,13.27,9.62,2.65,2.57,4.78,5.53,6.03,9.07Z"/>
    <path class="cls-2" d="M395.51,246.74c-4.91,2.77-8.5,6.73-10.4,12.05-1.28,3.31-2.74,6.44-4.57,9.6-1.12,2.94-2.23,5.88-3.16,8.99-1.14,2.4-2.1,4.97-3.23,7.55,0,.18-.33.56-.68.75l-.04-.9.19-3.43c-.67.93-1.34,2.05-1.65,3.14-.95,2.57-1.73,5.13-2.15,7.5-.48,1.28-.95,2.57-1.43,3.86-.42-1.24-.65-2.31-.9-3.56l-.5-10.07c-.19-.17-.37-.16-.73-.14.76-10.13,1.33-20.43,2.09-30.74.6-2.55-.37-3.95-3.1-4.35-4.76-1.57-8.84-3.89-12.44-7.5-.93-.67-.98-1.57-.12-2.34,1.01-1.49,2.02-2.98,2.83-4.64,2.32-4.08,5.8-6.59,10.26-7.54,5.7-1.36,9.49-4.79,11.57-10.3,1.87-5.86,4.3-11.39,7.3-16.4,2.32-4.08,5.42-7.12,9.26-9.47.69-.57,1.2-1.14,1.71-1.89.63-1.83,1.7-2.07,3.03-.69,2.13,2.96,4.09,6.11,5.87,9.44,2.22,4.76,2.65,9.78,1.47,15.25.04.72.25,1.43.81,1.76,3.1.75,5.17,2.45,6.56,5.08,1.22,2.82,1.17,5.35-.14,8.12-1.17,1.86-2.35,3.54-3.71,5.05-.15.55-.31,1.1-.46,1.64-.14.73-.29,1.46-.43,2.18-2.99,5.19-7.48,9.2-13.1,12ZM465.23,242.57c.07,1.44-.42,2.54-1.44,3.68-1.21.96-2.45,1.56-3.88,1.63-3.07-.21-5.96-.25-8.83.08-.89.22-1.41.61-1.92,1.18-.51.57-1.03.95-1.74,1.35-1.92,1.18-3.86,2.17-6.16,3.01-2.64,1.21-4.91,2.77-6.8,4.66-2.06,2.08-3.94,4.16-5.82,6.23-4.27,4.72-8.37,9.24-12.47,13.77-4.49,4.01-6.22,9.14-5.56,15.05.13,2.7,1.16,5.17,3.06,7.24,4.73,4.63,9.63,8.9,14.51,12.8,3.18,2.37,6.33,4.19,10.01,5.63,2.19.61,4.37.86,6.53.76,1.63.1,3.24-.16,4.83-.78,1.24-.42,1.38-1.33.41-2.72-2.97-5.44-5.96-11.24-8.94-16.86-.21-.53-.22-.89-.25-1.43.55.15.93.49,1.13,1.03,3.84,4.68,7.65,8.99,11.83,13.29.95,1.03,1.9,1.89,2.67,2.93.76.86,1.88,1.53,2.99,2.2,2.22,1.15,3.74,2.7,4.92,4.8,1.01,2.29.55,3.94-1.91,5.14-.51.57-1.02,1.31-1.15,2.22l-2.34.12c-3.82-.71-7.46-1.43-11.12-2.52-4.38-1.05-8.4-2.29-12.61-3.52-4.05-1.78-8.12-3.92-12.19-6.06-6.64-3.1-12.1-7.87-16.39-14.33-1.19-2.1-2.56-4.38-3.58-6.85-.24-1.25-.12-2.52.36-3.62,1.54-5.3,4.39-9.59,8.54-13.22,10.03-8.6,18-18.73,24.45-30.4.67-1.11.6-2.37.01-3.42-1.54-2.09-3.26-3.98-5.15-5.69-1.5-1.19-3.17-2.19-4.65-3.01-.18,0-.37-.16-.56-.33-.71.22-1.44.07-2-.44-.56-.33-.59-1.05-.26-1.61.5-.75.83-1.48.8-2.02,1.13-2.76,2.64-5,4.7-7.08,2.06-2.08,4.32-3.82,6.57-5.55,1.03-.95,2.28-1.19,3.55-1.08,1.28.3,2.57.95,3.69,1.8,5.21,3.35,10.44,7.05,15.67,10.76,3.57,2.89,5.74,6.74,6.5,11.21ZM463.97,217.22c.59,1.05,1.01,2.29,1.09,3.73-.51.57-1.04.77-1.57.98-.53.21-1.05.59-1.76.81-2.54-.42-5.09-.83-7.63-1.25-2.55-.59-5.12-1.55-7.53-2.87l-.75-.5c-1.75-2.62-3.5-5.23-5.07-7.68-.22-.71-.24-1.25-.08-1.62,1.04-.77,2.28-1.37,3.52-1.62,1.24-.42,2.68-.49,3.95-.37,5.01,3,9.85,6,14.69,9.19.37.16.75.5,1.14,1.2ZM475.77,211.59c-1.07.23-2.32.47-3.39.71l-.34.38c-2.37-.6-4.75-1.39-7.14-2.35-2.76-1.13-5.53-2.61-7.95-4.11-.57-.51-.95-1.03-1.17-1.74.1-1.63-.51-3.04-1.47-4.25-1.14-1.2-2.1-2.42-3.24-3.62-.02-.36-.21-.53-.58-.87l1.08-.05c1.8-.09,2.83-1.04,3.28-2.87.85-.94,1.74-1.17,2.84-.86,4.99,2.46,9.8,5.1,14.46,8.12,2.26,1.87,4.35,4.11,5.92,6.74,1.93,2.61,1.11,4.27-2.29,4.8Z"/>
    <path class="cls-2" d="M647.86,265.99c.29,2.15-.16,4.15-1.15,6-1.17,1.86-2.54,3.37-4.1,4.53-2.91,3.03-5.65,6.05-8.21,8.88-2.87,3.93-6.14,6.97-10.37,8.98-2.29,1.01-4.38,2.56-6.28,4.27-1.72,1.71-3.62,3.42-5.51,5.14-5.19,4.4-10.57,8.63-15.95,12.68-4.16,3.27-8.52,6.37-12.88,9.29l-1.4.79c-.04-.72.1-1.63.43-2.18,8.95-8.55,17.72-17.09,26.31-25.63,4.45-4.73,8.53-9.79,11.86-15.18,2.68-4.1,4.08-8.67,4.38-13.55-.06-1.26-.48-2.5-1.09-3.73-.59-1.05-1.37-2.27-2.16-3.5-.8-1.58-1.94-2.79-3.6-3.61-1.66-.82-3.31-1.28-5.11-1.37-1.81-.09-3.61-.18-5.43-.45-10.23.87-19.26,4.2-27.44,10.01-5.24,3.32-7.9,7.96-8.5,13.94l.12,2.34c.54,3.58,1.07,6.98,1.42,10.56.57,4.3,2.22,8.36,4.57,12.21,1.14,1.2,1,1.93-.78,2.38l.04.9c.22.71.59,1.05.97,1.39-.52.39-1.05.59-1.59.62-2.7.13-5.06-.29-7.28-1.44-2.41-1.32-5.16-2.27-7.88-2.67-2-.26-3.66-1.08-5.34-2.26-3.54-2.35-7.33-2.52-11.19-.35-4.04,2.18-7.66,1.82-10.88-1.26-.39-.52-.41-1.06-.26-1.61,2.38-6.61,6.26-11.84,12.02-15.73,4.88-3.3,9.76-6.79,14.45-10.26.5-.75.99-1.85,1.12-2.94-.02-7.75-.41-15.66-.8-23.57-.23-1.07-.8-1.58-1.52-1.55-6.39-1.67-12.77-3.15-18.96-4.47-2.93-.94-5.52-2.25-7.94-3.93-.55-.15-.75-.5-.6-1.23,1.3-2.77,2.42-5.71,3.73-8.47.81-1.84,1.8-3.69,2.79-5.54.85-1.12,1.69-2.25,2.73-3.2,2.05-2.26,4.48-4.19,7.29-5.59,2.63-1.39,5.46-2.61,8.28-3.83,3.53-1.44,7.25-2.7,10.99-3.79,1.78-.45,2.8-1.76,3.44-3.41,1.89-5.5,3.96-11.01,6.03-16.52,1.34-2.05,2.7-3.74,4.25-5.25.85-.94,1.89-1.9,3.11-2.68,2.23-2.27,4.83-4.38,7.44-6.31,1.25-.24,2.34-.12,3.45.55,1.46.29,2.75.95,3.87,1.79,1.12.85,1.54,1.91,1.61,3.34.04.72.26,1.61.65,2.31.83,2.3.4,4.49-1.13,6.36-3.16,5.38-5.94,11.11-8.91,16.66-.14.91.08,1.62.65,2.31,3.75,2.88,6.27,6.54,7.41,11.35,1.27,3.9.17,7.02-3.51,9.18-2.26,1.73-4.5,3.83-6.56,5.91-.88.4-2.11,1.01-3.17,1.6-2.27,1.37-4.18,2.91-6.08,4.62-6.33,6.8-8.82,14.85-7.28,24.15.04.72.06,1.26.28,1.97.21.53.75.68,1.46.29.7-.4,1.23-.6,1.57-.98.7-.39,1.4-.79,2.29-1.01.52-.39,1.21-.96,1.74-1.35.7-.39,1.42-.43,2.34-.12.54-.03,1.25-.24,1.77-.63.51-.57,1.21-.96,1.73-1.53.33-.56.85-1.12.99-1.85.16-.37.51-.57,1.21-.96,8.69-6.56,18.59-10.47,29.7-11.74,10.77-.89,19.6,2.82,26.33,11.31,2.11,2.6,3.51,5.41,4.03,8.63ZM560.89,285.6c-.52.39-1.22.78-1.74,1.35-1.39.97-2.23,2.27-2.69,3.92s-.56,3.27-.84,4.91c.38.34.57.69.94.85.92.32,2,.26,3.07.03,1.08-.05,1.76-.81,2.08-1.72.31-1.1.25-2.18.03-3.07l-.2-4.13c-.22-.71-.43-1.42-.65-2.13ZM660.81,225.16c-.77,2.74-2.47,4.63-5.13,5.66-2.28,1.19-4.78,1.68-7.32,1.44-2.53-.06-5.06-.29-7.59-.53-1.26.06-2.53-.06-3.79-.17-1.65-.64-3.31-1.28-4.96-1.92-2.04-1.16-4.26-2.31-6.65-3.28-3.48-1.09-7.13-1.99-10.76-2.53-1.08.05-1.98.1-2.86.5-.36.02-.72.04-1.1-.31l.51-.57,8.57-12.5c.49-1.11.98-2.03,1.84-2.97,1.75-.99,3.69-1.98,5.62-2.98.54-.03.89-.22,1.22-.78.99-1.85,2.37-3,4.33-3.46,1.96-.46,3.9-1.27,5.66-2.08.89-.22,1.8-.09,2.53.24,4.62,2.29,8.03,5.73,10.42,10.3,1.39,2.63,3.13,4.89,4.86,7.15,1.41,2.99,2.99,5.8,4.58,8.78Z"/>
    <path class="cls-2" d="M844.02,274.86l.24,4.85c-1.14,2.4-2.47,4.81-3.79,7.22l-.68.75c-1.97.28-3.93.73-5.89,1.19-2.14.47-4.11.74-6.09.84-17.11.12-29.91-7.17-38.38-21.71-4.35-7.89-5.48-16.13-3.39-24.88,2.05-9.47,4.29-18.95,6.53-28.26.32-.74.47-1.47.61-2.19-.2-.35-.57-.51-.76-.68-2.62,1.75-5.22,3.68-7.46,5.78-3.93,4.34-8.05,8.51-12.17,12.68-.52.39-.86.76-1.2,1.14-3.05,3.93-6.09,8.05-8.94,12.34-2.43,5.53-3.22,11.33-1.85,17.21.61,5.02,1.59,10.19,2.55,15.19,2.05,8.73,4.11,17.64,6.35,26.36.1,1.98.37,3.77.46,5.74-.32.74-.65,1.47-1.35,1.87-.9.04-1.81-.09-2.55-.59-.95-1.03-1.72-2.08-2.15-3.32-.6-1.23-.66-2.49-.37-3.95.23-2.71-.28-5.57-1.31-8.23-2.67-10.32-5.35-20.82-7.84-30.97-.29-2.15-1.2-2.46-2.77-1.3s-3.13,2.32-4.51,3.47c-2.37,3.18-4.75,6-7.31,8.83-1.89,1.9-3.99,3.08-6.67,3.57-2.35-.06-4.54-.68-6.6-2.2-1.17-1.74-1.44-3.53-.99-5.54,1.48-6.56,2.78-13.11,4.25-19.67,1.03-4.74.96-9.78,0-14.78-.62-1.59-1.75-2.62-3.73-2.52-1.08.05-1.77.63-2.44,1.74-.48,1.28-1.52,2.06-2.75,2.66-1.24.42-2.48.84-3.89,1.45l-.4-.7c2.02-6.59,5.34-12.34,9.96-17.25.52-.39.85-1.12,1.36-1.69,1.01-1.49,2.44-1.74,3.92-.92,4.38,1.05,7.2,3.43,8.84,7.49,1.83,4.24,3.32,8.85,4.27,13.49.95,4.64,1,9.32.15,14.05-.34.38-.31.92.07,1.44.35-.2.7-.4,1.04-.77.18,0,.35-.2.53-.21,2.27-1.37,3.81-3.07,4.6-5.27.8-2.02,1.23-4.39,1.1-6.9-.58-19.07,1.74-37.75,7.14-56.04,1.73-5.13,4.39-9.59,8.17-13.38.49-.93,1.18-1.68,2.05-2.26.87-.58,1.78-.45,2.71.05,2.41,1.32,3.22,3.26,2.63,5.82-.83,5.09-2.39,10.03-4.49,14.82-2.08,5.33-4.16,10.66-5.86,16.33-3.83,10.1-5.47,20.63-5.3,31.26-.14.73-.11,1.45.11,2.16.52-.39,1.03-.95,1.37-1.51l28.19-31.31c3.44-3.41,7.07-6.48,11.08-9.2,1.75-1.17,3.54-1.26,5.56-.46,4,.7,6.98,2.72,9.13,6.04,1.56,2.45,2.05,4.94,1.63,7.49-1.28,3.31-2.57,6.43-3.84,9.92-.44,2-1.05,4.2-1.66,6.57-1.96,7.67-3.76,15.14-5.56,22.44-.33.56-.49,1.11-.83,1.48l-.05-1.08c.98-5.64,1.97-11.27,2.95-16.91l.46-5.25c-.28,1.64-.92,3.29-1.57,4.76-1.05,4.2-2.11,8.39-3.35,12.42-1.06,4.02-1.57,8.37-1.72,12.7l.05,1.08c.38.34.58.87.61,1.41.52-.39.68-.93.83-1.48.48-1.28.6-2.37.72-3.64l.17,3.42c-.3,4.88,1.52,8.93,5.46,11.98,3.36,2.36,6.71,4.53,10.06,6.71.57.51,1.12.85,2.03.98,3.59-.36,7.16-.89,10.73-1.61,1.76-.81,2.97-1.95,3.6-3.78.64-1.65.55-3.45.1-5.23-1.07-3.37-2.5-6.72-4.27-9.88-1.97-3.33-3.74-6.48-5.34-9.65-1.58-2.81-3.34-5.6-5.09-8.22-.19-.17-.21-.53-.22-.71l.56.33c2.46,2.4,4.57,5,6.68,7.6,2.5,3.12,4.63,6.26,6.78,9.58l8.97,17.4Z"/>
    <path class="cls-2" d="M900.3,228.46c-3.35-2.18-6.73-4.89-9.94-7.8-2.26-1.87-4.16-3.94-5.72-6.39-.59-1.05-1.01-2.29-1.27-3.72-.18-3.6,1.13-6.36,3.91-8.48.51-.57.85-1.12.82-1.66.62-2.01,1.06-4.02,1.87-5.86,1.48-2.78,3.45-3.05,5.71-1.18,1.7,1.54,3.32,1.46,4.86-.06,1.54-1.7,3.44-3.41,5.52-4.96.36-.02.54-.03.89-.22,0,.18.21.71.41,1.06.03.54.4.7.74.32l1.02-1.31c6.17-6.43,12.16-12.86,18.15-19.28,1.88-2.07,3.95-3.98,6.03-5.7,1.06-.41,1.96-.46,3.06-.15,5.4,3.52,9.94,7.98,13.64,13.56,3.12,4.71,5,10.02,5.3,16.14.38.34.93.49,1.28.48,1.77-.63,3.35-1.43,4.94-2.23.35-.2.89-.22,1.25-.24-.16.37-.33.56-.67.93-1.54,1.7-2.7,3.74-3.31,5.93-.43,2.18-.86,4.55-1.11,6.72-.46,1.64-.74,3.28-1.21,4.75-.28,1.63-.2,3.25-.12,4.87-.11,1.45-.77,2.56-1.81,3.51-1.03.95-2.27,1.55-3.88,1.63-1.45-.11-3.08-.39-4.56-1.04-1.47-.65-2.94-1.12-4.4-1.58-5.33-2.08-9.29-5.67-11.71-10.78-.61-1.41-1.06-3.19-1.15-4.99.09-1.81,0-3.61-.27-5.39-.2-3.96-.58-8.08-.96-12.21-.4-.88-1.14-1.2-2.05-1.34-2.88.14-5.54.99-7.99,2.38-2.45,1.56-4.51,3.47-6.38,5.72-1.68,2.43-2.46,4.99-2.31,7.86.13,2.7.98,5.18,2.17,7.46,1.59,2.98,3.36,5.96,5.13,8.94,1.96,3.15,3.55,6.13,5.14,9.3.84,2.3.78,4.83-.17,7.58-.67.93-1.73,1.53-2.62,1.75-1.06.41-2.31.65-3.39.71-1.26.06-2.34.12-3.43-.19-4.01-.88-7.87-2.49-11.41-4.84ZM1017.28,207.01c-.85.94-1.72,1.71-2.39,2.64-3.07,3.57-6.14,6.97-9.41,10.2l-19.08,18.6c-1.2,1.14-2.62,1.75-4.41,1.84-2.14.47-3.89,1.45-5.62,2.98-6.95,5.21-13.72,10.41-20.49,15.79-7.49,5.24-14.8,10.46-22.11,15.69-1.56,1.34-3.12,2.5-4.87,3.48-3.17,1.6-6.52,3.03-9.5,4.61-2.14.47-2.98,1.77-2.7,3.74-.14.73-.66,1.29-1.18,1.68-.7.4-1.22.78-1.74,1.17-6.06,1.38-11.75,2.92-17.44,4.47-1.6.44-2.83,1.04-4.06,1.64-.52.39-1.04.77-1.58.8l-.11-2.16,5.52-8.56c.49-.92,1.18-1.68,2.04-2.44.98-2.03,2.58-2.47,4.45-1.12,2.2.79,4.37.87,6.66-.15,4.79-1.5,9.39-3.35,13.79-5.37,13.75-6.27,25.56-15.14,35.08-26.78,9.88-11.48,17.55-24.11,23-37.9,2.58-6.07,3.9-12.27,4.12-18.77.26-1.99-.51-3.04-2.32-3.13-.74-.32-1.29-.66-1.84-.81-2.53-.24-3.13-1.29-1.6-3.17.16-.37.14-.91-.06-1.26-1.15-1.38-.65-2.31,1.3-2.77,2.65-1.03,5.12-2.06,7.77-3.27,2.46-1.2,4.98-1.33,7.57-.01,5.91,2.95,11.33,6.83,16.08,11.82,3.25,3.8,5.28,8.39,6.07,13.4.24,1.25-.06,2.35-.93,3.11Z"/>
    <path class="cls-2" d="M1197.97,190.87c-.82,1.66-2.21,2.63-4,2.9-2.51.3-5.03.25-7.4-.18-2.72-.41-5.45-.81-8.17-1.22-1.27-.12-2.34.12-3.4.53-1.76.81-3.55,1.08-5.38.63-2.53-.06-4.84.42-7.15,1.07-.88.4-1.25.24-1.47-.65-.19-.17-.55-.15-.91-.14-4.83.78-9.06,2.61-12.89,5.32-3.83,2.71-7.46,5.77-10.72,9.18-.32.74-.11,1.45.28,1.97,2.3,2.77,4.42,5.55,6.36,8.34,2.13,2.96,3.72,5.94,4.78,9.32.84,2.48,1.33,4.98,1.28,7.69s-.65,5.08-2.15,7.5c-3.51,5.58-7.39,11-11.45,16.24-1.88,2.08-4.32,3.82-6.95,5.21-2.63,1.57-5.04,3.67-7.1,5.94-2.22,2.45-4.09,4.71-5.95,7.14-1.04.77-2.1,1.36-3.16,1.6-1.25.24-2.33.29-3.6.18-1.64-.28-2.88.14-4.09,1.1-5.57,4.06-10.94,8.47-16.49,12.71l-14.61,10.63c-.35.2-.88.4-1.41.61-.03-.54.13-1.09.46-1.64.34-.38.86-.76,1.38-1.15,3.13-2.32,6.26-4.63,9.21-6.94,3.13-2.32,6.06-4.98,8.8-7.82,7.05-6.84,13.35-14.36,18.89-22.56,4-6.69,7.06-13.87,9.39-21.55.6-2.55.65-5.08.54-7.42-.12-2.52-.43-5.03-.54-7.36-.58-.87-1.15-1.38-2.08-1.88-.75-.5-1.48-.83-2.06-1.52-1.13-1.03-2.27-2.23-3.06-3.63-.38-.34-.39-.52-.4-.88-1.49-1.01-2.09-2.24-1.8-3.69.29-1.46.95-2.75,1.99-3.52,3.1-2.86,6.4-5.36,9.9-7.52,1.23-.6,2.31-.65,3.59-.36,2.59,1.31,5.09.83,7.33-1.26,5.19-4.4,10.16-9.51,14.58-14.96,4.42-5.44,7.91-11.38,10.64-18.01.81-1.84.23-2.71-1.76-2.8-4.21-1.23-8.39-2.11-12.58-2.98-3.26-.38-6.48.14-9.29,1.72-2.81,1.58-5.42,3.33-7.84,5.43-2.78,2.12-5.36,4.59-7.76,7.05-1.85,2.61-3.89,5.24-5.74,7.85-.65,1.47-1.84,2.79-3.05,3.93-2.54,3.19-5.09,6.38-7.27,9.73-2.87,3.93-6.5,6.99-10.91,9.01-4.05,2-8.14,2.93-12.47,2.96-.36.02-.73-.14-.92-.31-3.85-1.25-7.71-2.86-11.57-4.47-3.86-1.61-7.22-3.97-9.73-7.27-.39-.52-.4-.88-.07-1.44,1.62-3.68,3.98-7.04,6.89-10.07,2.92-2.85,6.42-5,10.31-6.46,3.88-1.81,7.73-3.99,11.21-6.5,1.93-1,4.05-2,5.79-3.17.86-.76,1.72-1.71,2.75-2.66,2.27-1.55,4.54-2.93,7-4.13,8.29-3.65,16.59-7.13,25.08-10.25,6.91-2.32,13.67-4.28,20.43-5.87,7.06.55,13.92.93,20.99,1.67,4.36.69,7.88,2.67,10.75,5.96,4.88,3.9,9.06,8.2,12.9,13.06,2.76,4.73,4.8,9.67,6.33,15.01.45,1.78.17,3.42-.47,5.07Z"/>
    <path class="cls-2" d="M1379.9,214.68c-.34.38-.85.94-1.55,1.52-.69.57-1.39.97-2.1,1.19-.54.03-1.43.25-2.15.29l-17.44.86c-8.28.23-16.36.81-24.59,1.94-8.05,1.12-16.27,2.61-24.3,4.26-8.04,1.48-16.06,3.32-24.07,5.15-6.94,1.78-14.07,3.4-21.02,5-1.61.26-3.23.34-4.86.06-1.81-.09-3.28-.74-4.94-1.56-1.48-.83-2.61-1.85-3.76-3.06-3.07-3.81-5.98-7.99-8.36-12.38-.4-.7-.61-1.41-.65-2.13l-.12-2.52c-.04-.9.1-1.63.23-2.53,0-.18-.02-.36.16-.37l.72-.04c.18,0,.35-.2.35-.2,1.45.11,2.89.22,4.15.15,1.27.12,2.54.42,3.82.71,3.48,1.09,6.76,1.83,10.2,2.2,3.61.18,7.05.37,10.63.02,3.42-.17,6.99-.71,10.39-1.23,10.02-1.4,20.05-2.79,30.06-4.37,9.83-1.57,19.86-2.96,30.06-4.37,5.2-.62,10.59-.88,15.79-1.32,5.21-.26,10.6-.7,15.81-.96.36-.02.9-.04,1.28.3.37.16.75.5,1.12.85,1.36,1.92,2.72,4.01,4.08,5.93,1.72,1.9,2.01,4.23,1.05,6.62Z"/>
  </g>
</svg>