<svg width="34" height="43" viewBox="0 0 34 43" fill="none" xmlns="http://www.w3.org/2000/svg">
<path d="M11.7566 31.593C11.7566 31.0407 12.2043 30.593 12.7566 30.593H20.7566C21.3089 30.593 21.7566 31.0407 21.7566 31.593V41.593C21.7566 42.1453 21.3089 42.593 20.7566 42.593H12.7566C12.2043 42.593 11.7566 42.1453 11.7566 41.593V31.593Z" fill="#654320"/>
<path d="M16.0532 9.28926C16.4428 8.90358 17.0704 8.90358 17.4601 9.28926L33.2147 24.8823C33.8497 25.5107 33.4046 26.593 32.5112 26.593H1.00201C0.108615 26.593 -0.336417 25.5107 0.298554 24.8823L16.0532 9.28926Z" fill="#327445"/>
<path d="M16.0532 18.2893C16.4428 17.9036 17.0704 17.9036 17.4601 18.2893L33.2147 33.8823C33.8497 34.5107 33.4046 35.593 32.5112 35.593H1.00201C0.108615 35.593 -0.336417 34.5107 0.298554 33.8823L16.0532 18.2893Z" fill="#327445"/>
<path d="M16.0532 0.289258C16.4428 -0.0964189 17.0704 -0.0964196 17.4601 0.289257L33.2147 15.8823C33.8497 16.5107 33.4046 17.593 32.5112 17.593H1.00201C0.108615 17.593 -0.336417 16.5107 0.298554 15.8823L16.0532 0.289258Z" fill="#327445"/>
</svg>
